<?xml version="1.0" encoding="utf-8" standalone="no"?>
<!DOCTYPE svg PUBLIC "-//W3C//DTD SVG 1.1//EN"
  "http://www.w3.org/Graphics/SVG/1.1/DTD/svg11.dtd">
<!-- Created with matplotlib (https://matplotlib.org/) -->
<svg height="360pt" version="1.1" viewBox="0 0 864 360" width="864pt" xmlns="http://www.w3.org/2000/svg" xmlns:xlink="http://www.w3.org/1999/xlink">
 <metadata>
  <rdf:RDF xmlns:cc="http://creativecommons.org/ns#" xmlns:dc="http://purl.org/dc/elements/1.1/" xmlns:rdf="http://www.w3.org/1999/02/22-rdf-syntax-ns#">
   <cc:Work>
    <dc:type rdf:resource="http://purl.org/dc/dcmitype/StillImage"/>
    <dc:date>2021-07-02T00:22:46.175767</dc:date>
    <dc:format>image/svg+xml</dc:format>
    <dc:creator>
     <cc:Agent>
      <dc:title>Matplotlib v3.3.3, https://matplotlib.org/</dc:title>
     </cc:Agent>
    </dc:creator>
   </cc:Work>
  </rdf:RDF>
 </metadata>
 <defs>
  <style type="text/css">*{stroke-linecap:butt;stroke-linejoin:round;}</style>
 </defs>
 <g id="figure_1">
  <g id="patch_1">
   <path d="M 0 360 
L 864 360 
L 864 0 
L 0 0 
z
" style="fill:#ffffff;"/>
  </g>
  <g id="axes_1">
   <g id="patch_2">
    <path d="M 108 320.4 
L 777.6 320.4 
L 777.6 43.2 
L 108 43.2 
z
" style="fill:#ffffff;"/>
   </g>
   <g id="matplotlib.axis_1">
    <g id="xtick_1">
     <g id="line2d_1">
      <path clip-path="url(#p14e7dee535)" d="M 108 320.4 
L 108 43.2 
" style="fill:none;stroke:#b0b0b0;stroke-linecap:square;stroke-width:0.8;"/>
     </g>
     <g id="line2d_2">
      <defs>
       <path d="M 0 0 
L 0 3.5 
" id="m862e594a16" style="stroke:#000000;stroke-width:0.8;"/>
      </defs>
      <g>
       <use style="stroke:#000000;stroke-width:0.8;" x="108" xlink:href="#m862e594a16" y="320.4"/>
      </g>
     </g>
     <g id="text_1">
      <!-- 0.00 -->
      <g transform="translate(94.640625 336.518125)scale(0.12 -0.12)">
       <defs>
        <path d="M 31.78125 66.40625 
Q 24.171875 66.40625 20.328125 58.90625 
Q 16.5 51.421875 16.5 36.375 
Q 16.5 21.390625 20.328125 13.890625 
Q 24.171875 6.390625 31.78125 6.390625 
Q 39.453125 6.390625 43.28125 13.890625 
Q 47.125 21.390625 47.125 36.375 
Q 47.125 51.421875 43.28125 58.90625 
Q 39.453125 66.40625 31.78125 66.40625 
z
M 31.78125 74.21875 
Q 44.046875 74.21875 50.515625 64.515625 
Q 56.984375 54.828125 56.984375 36.375 
Q 56.984375 17.96875 50.515625 8.265625 
Q 44.046875 -1.421875 31.78125 -1.421875 
Q 19.53125 -1.421875 13.0625 8.265625 
Q 6.59375 17.96875 6.59375 36.375 
Q 6.59375 54.828125 13.0625 64.515625 
Q 19.53125 74.21875 31.78125 74.21875 
z
" id="DejaVuSans-48"/>
        <path d="M 10.6875 12.40625 
L 21 12.40625 
L 21 0 
L 10.6875 0 
z
" id="DejaVuSans-46"/>
       </defs>
       <use xlink:href="#DejaVuSans-48"/>
       <use x="63.623047" xlink:href="#DejaVuSans-46"/>
       <use x="95.410156" xlink:href="#DejaVuSans-48"/>
       <use x="159.033203" xlink:href="#DejaVuSans-48"/>
      </g>
     </g>
    </g>
    <g id="xtick_2">
     <g id="line2d_3">
      <path clip-path="url(#p14e7dee535)" d="M 141.48 320.4 
L 141.48 43.2 
" style="fill:none;stroke:#b0b0b0;stroke-linecap:square;stroke-width:0.8;"/>
     </g>
     <g id="line2d_4">
      <g>
       <use style="stroke:#000000;stroke-width:0.8;" x="141.48" xlink:href="#m862e594a16" y="320.4"/>
      </g>
     </g>
     <g id="text_2">
      <!-- 0.05 -->
      <g transform="translate(128.120625 336.518125)scale(0.12 -0.12)">
       <defs>
        <path d="M 10.796875 72.90625 
L 49.515625 72.90625 
L 49.515625 64.59375 
L 19.828125 64.59375 
L 19.828125 46.734375 
Q 21.96875 47.46875 24.109375 47.828125 
Q 26.265625 48.1875 28.421875 48.1875 
Q 40.625 48.1875 47.75 41.5 
Q 54.890625 34.8125 54.890625 23.390625 
Q 54.890625 11.625 47.5625 5.09375 
Q 40.234375 -1.421875 26.90625 -1.421875 
Q 22.3125 -1.421875 17.546875 -0.640625 
Q 12.796875 0.140625 7.71875 1.703125 
L 7.71875 11.625 
Q 12.109375 9.234375 16.796875 8.0625 
Q 21.484375 6.890625 26.703125 6.890625 
Q 35.15625 6.890625 40.078125 11.328125 
Q 45.015625 15.765625 45.015625 23.390625 
Q 45.015625 31 40.078125 35.4375 
Q 35.15625 39.890625 26.703125 39.890625 
Q 22.75 39.890625 18.8125 39.015625 
Q 14.890625 38.140625 10.796875 36.28125 
z
" id="DejaVuSans-53"/>
       </defs>
       <use xlink:href="#DejaVuSans-48"/>
       <use x="63.623047" xlink:href="#DejaVuSans-46"/>
       <use x="95.410156" xlink:href="#DejaVuSans-48"/>
       <use x="159.033203" xlink:href="#DejaVuSans-53"/>
      </g>
     </g>
    </g>
    <g id="xtick_3">
     <g id="line2d_5">
      <path clip-path="url(#p14e7dee535)" d="M 174.96 320.4 
L 174.96 43.2 
" style="fill:none;stroke:#b0b0b0;stroke-linecap:square;stroke-width:0.8;"/>
     </g>
     <g id="line2d_6">
      <g>
       <use style="stroke:#000000;stroke-width:0.8;" x="174.96" xlink:href="#m862e594a16" y="320.4"/>
      </g>
     </g>
     <g id="text_3">
      <!-- 0.10 -->
      <g transform="translate(161.600625 336.518125)scale(0.12 -0.12)">
       <defs>
        <path d="M 12.40625 8.296875 
L 28.515625 8.296875 
L 28.515625 63.921875 
L 10.984375 60.40625 
L 10.984375 69.390625 
L 28.421875 72.90625 
L 38.28125 72.90625 
L 38.28125 8.296875 
L 54.390625 8.296875 
L 54.390625 0 
L 12.40625 0 
z
" id="DejaVuSans-49"/>
       </defs>
       <use xlink:href="#DejaVuSans-48"/>
       <use x="63.623047" xlink:href="#DejaVuSans-46"/>
       <use x="95.410156" xlink:href="#DejaVuSans-49"/>
       <use x="159.033203" xlink:href="#DejaVuSans-48"/>
      </g>
     </g>
    </g>
    <g id="xtick_4">
     <g id="line2d_7">
      <path clip-path="url(#p14e7dee535)" d="M 208.44 320.4 
L 208.44 43.2 
" style="fill:none;stroke:#b0b0b0;stroke-linecap:square;stroke-width:0.8;"/>
     </g>
     <g id="line2d_8">
      <g>
       <use style="stroke:#000000;stroke-width:0.8;" x="208.44" xlink:href="#m862e594a16" y="320.4"/>
      </g>
     </g>
     <g id="text_4">
      <!-- 0.15 -->
      <g transform="translate(195.080625 336.518125)scale(0.12 -0.12)">
       <use xlink:href="#DejaVuSans-48"/>
       <use x="63.623047" xlink:href="#DejaVuSans-46"/>
       <use x="95.410156" xlink:href="#DejaVuSans-49"/>
       <use x="159.033203" xlink:href="#DejaVuSans-53"/>
      </g>
     </g>
    </g>
    <g id="xtick_5">
     <g id="line2d_9">
      <path clip-path="url(#p14e7dee535)" d="M 241.92 320.4 
L 241.92 43.2 
" style="fill:none;stroke:#b0b0b0;stroke-linecap:square;stroke-width:0.8;"/>
     </g>
     <g id="line2d_10">
      <g>
       <use style="stroke:#000000;stroke-width:0.8;" x="241.92" xlink:href="#m862e594a16" y="320.4"/>
      </g>
     </g>
     <g id="text_5">
      <!-- 0.20 -->
      <g transform="translate(228.560625 336.518125)scale(0.12 -0.12)">
       <defs>
        <path d="M 19.1875 8.296875 
L 53.609375 8.296875 
L 53.609375 0 
L 7.328125 0 
L 7.328125 8.296875 
Q 12.9375 14.109375 22.625 23.890625 
Q 32.328125 33.6875 34.8125 36.53125 
Q 39.546875 41.84375 41.421875 45.53125 
Q 43.3125 49.21875 43.3125 52.78125 
Q 43.3125 58.59375 39.234375 62.25 
Q 35.15625 65.921875 28.609375 65.921875 
Q 23.96875 65.921875 18.8125 64.3125 
Q 13.671875 62.703125 7.8125 59.421875 
L 7.8125 69.390625 
Q 13.765625 71.78125 18.9375 73 
Q 24.125 74.21875 28.421875 74.21875 
Q 39.75 74.21875 46.484375 68.546875 
Q 53.21875 62.890625 53.21875 53.421875 
Q 53.21875 48.921875 51.53125 44.890625 
Q 49.859375 40.875 45.40625 35.40625 
Q 44.1875 33.984375 37.640625 27.21875 
Q 31.109375 20.453125 19.1875 8.296875 
z
" id="DejaVuSans-50"/>
       </defs>
       <use xlink:href="#DejaVuSans-48"/>
       <use x="63.623047" xlink:href="#DejaVuSans-46"/>
       <use x="95.410156" xlink:href="#DejaVuSans-50"/>
       <use x="159.033203" xlink:href="#DejaVuSans-48"/>
      </g>
     </g>
    </g>
    <g id="xtick_6">
     <g id="line2d_11">
      <path clip-path="url(#p14e7dee535)" d="M 275.4 320.4 
L 275.4 43.2 
" style="fill:none;stroke:#b0b0b0;stroke-linecap:square;stroke-width:0.8;"/>
     </g>
     <g id="line2d_12">
      <g>
       <use style="stroke:#000000;stroke-width:0.8;" x="275.4" xlink:href="#m862e594a16" y="320.4"/>
      </g>
     </g>
     <g id="text_6">
      <!-- 0.25 -->
      <g transform="translate(262.040625 336.518125)scale(0.12 -0.12)">
       <use xlink:href="#DejaVuSans-48"/>
       <use x="63.623047" xlink:href="#DejaVuSans-46"/>
       <use x="95.410156" xlink:href="#DejaVuSans-50"/>
       <use x="159.033203" xlink:href="#DejaVuSans-53"/>
      </g>
     </g>
    </g>
    <g id="xtick_7">
     <g id="line2d_13">
      <path clip-path="url(#p14e7dee535)" d="M 308.88 320.4 
L 308.88 43.2 
" style="fill:none;stroke:#b0b0b0;stroke-linecap:square;stroke-width:0.8;"/>
     </g>
     <g id="line2d_14">
      <g>
       <use style="stroke:#000000;stroke-width:0.8;" x="308.88" xlink:href="#m862e594a16" y="320.4"/>
      </g>
     </g>
     <g id="text_7">
      <!-- 0.30 -->
      <g transform="translate(295.520625 336.518125)scale(0.12 -0.12)">
       <defs>
        <path d="M 40.578125 39.3125 
Q 47.65625 37.796875 51.625 33 
Q 55.609375 28.21875 55.609375 21.1875 
Q 55.609375 10.40625 48.1875 4.484375 
Q 40.765625 -1.421875 27.09375 -1.421875 
Q 22.515625 -1.421875 17.65625 -0.515625 
Q 12.796875 0.390625 7.625 2.203125 
L 7.625 11.71875 
Q 11.71875 9.328125 16.59375 8.109375 
Q 21.484375 6.890625 26.8125 6.890625 
Q 36.078125 6.890625 40.9375 10.546875 
Q 45.796875 14.203125 45.796875 21.1875 
Q 45.796875 27.640625 41.28125 31.265625 
Q 36.765625 34.90625 28.71875 34.90625 
L 20.21875 34.90625 
L 20.21875 43.015625 
L 29.109375 43.015625 
Q 36.375 43.015625 40.234375 45.921875 
Q 44.09375 48.828125 44.09375 54.296875 
Q 44.09375 59.90625 40.109375 62.90625 
Q 36.140625 65.921875 28.71875 65.921875 
Q 24.65625 65.921875 20.015625 65.03125 
Q 15.375 64.15625 9.8125 62.3125 
L 9.8125 71.09375 
Q 15.4375 72.65625 20.34375 73.4375 
Q 25.25 74.21875 29.59375 74.21875 
Q 40.828125 74.21875 47.359375 69.109375 
Q 53.90625 64.015625 53.90625 55.328125 
Q 53.90625 49.265625 50.4375 45.09375 
Q 46.96875 40.921875 40.578125 39.3125 
z
" id="DejaVuSans-51"/>
       </defs>
       <use xlink:href="#DejaVuSans-48"/>
       <use x="63.623047" xlink:href="#DejaVuSans-46"/>
       <use x="95.410156" xlink:href="#DejaVuSans-51"/>
       <use x="159.033203" xlink:href="#DejaVuSans-48"/>
      </g>
     </g>
    </g>
    <g id="xtick_8">
     <g id="line2d_15">
      <path clip-path="url(#p14e7dee535)" d="M 342.36 320.4 
L 342.36 43.2 
" style="fill:none;stroke:#b0b0b0;stroke-linecap:square;stroke-width:0.8;"/>
     </g>
     <g id="line2d_16">
      <g>
       <use style="stroke:#000000;stroke-width:0.8;" x="342.36" xlink:href="#m862e594a16" y="320.4"/>
      </g>
     </g>
     <g id="text_8">
      <!-- 0.35 -->
      <g transform="translate(329.000625 336.518125)scale(0.12 -0.12)">
       <use xlink:href="#DejaVuSans-48"/>
       <use x="63.623047" xlink:href="#DejaVuSans-46"/>
       <use x="95.410156" xlink:href="#DejaVuSans-51"/>
       <use x="159.033203" xlink:href="#DejaVuSans-53"/>
      </g>
     </g>
    </g>
    <g id="xtick_9">
     <g id="line2d_17">
      <path clip-path="url(#p14e7dee535)" d="M 375.84 320.4 
L 375.84 43.2 
" style="fill:none;stroke:#b0b0b0;stroke-linecap:square;stroke-width:0.8;"/>
     </g>
     <g id="line2d_18">
      <g>
       <use style="stroke:#000000;stroke-width:0.8;" x="375.84" xlink:href="#m862e594a16" y="320.4"/>
      </g>
     </g>
     <g id="text_9">
      <!-- 0.40 -->
      <g transform="translate(362.480625 336.518125)scale(0.12 -0.12)">
       <defs>
        <path d="M 37.796875 64.3125 
L 12.890625 25.390625 
L 37.796875 25.390625 
z
M 35.203125 72.90625 
L 47.609375 72.90625 
L 47.609375 25.390625 
L 58.015625 25.390625 
L 58.015625 17.1875 
L 47.609375 17.1875 
L 47.609375 0 
L 37.796875 0 
L 37.796875 17.1875 
L 4.890625 17.1875 
L 4.890625 26.703125 
z
" id="DejaVuSans-52"/>
       </defs>
       <use xlink:href="#DejaVuSans-48"/>
       <use x="63.623047" xlink:href="#DejaVuSans-46"/>
       <use x="95.410156" xlink:href="#DejaVuSans-52"/>
       <use x="159.033203" xlink:href="#DejaVuSans-48"/>
      </g>
     </g>
    </g>
    <g id="xtick_10">
     <g id="line2d_19">
      <path clip-path="url(#p14e7dee535)" d="M 409.32 320.4 
L 409.32 43.2 
" style="fill:none;stroke:#b0b0b0;stroke-linecap:square;stroke-width:0.8;"/>
     </g>
     <g id="line2d_20">
      <g>
       <use style="stroke:#000000;stroke-width:0.8;" x="409.32" xlink:href="#m862e594a16" y="320.4"/>
      </g>
     </g>
     <g id="text_10">
      <!-- 0.45 -->
      <g transform="translate(395.960625 336.518125)scale(0.12 -0.12)">
       <use xlink:href="#DejaVuSans-48"/>
       <use x="63.623047" xlink:href="#DejaVuSans-46"/>
       <use x="95.410156" xlink:href="#DejaVuSans-52"/>
       <use x="159.033203" xlink:href="#DejaVuSans-53"/>
      </g>
     </g>
    </g>
    <g id="xtick_11">
     <g id="line2d_21">
      <path clip-path="url(#p14e7dee535)" d="M 442.8 320.4 
L 442.8 43.2 
" style="fill:none;stroke:#b0b0b0;stroke-linecap:square;stroke-width:0.8;"/>
     </g>
     <g id="line2d_22">
      <g>
       <use style="stroke:#000000;stroke-width:0.8;" x="442.8" xlink:href="#m862e594a16" y="320.4"/>
      </g>
     </g>
     <g id="text_11">
      <!-- 0.50 -->
      <g transform="translate(429.440625 336.518125)scale(0.12 -0.12)">
       <use xlink:href="#DejaVuSans-48"/>
       <use x="63.623047" xlink:href="#DejaVuSans-46"/>
       <use x="95.410156" xlink:href="#DejaVuSans-53"/>
       <use x="159.033203" xlink:href="#DejaVuSans-48"/>
      </g>
     </g>
    </g>
    <g id="xtick_12">
     <g id="line2d_23">
      <path clip-path="url(#p14e7dee535)" d="M 476.28 320.4 
L 476.28 43.2 
" style="fill:none;stroke:#b0b0b0;stroke-linecap:square;stroke-width:0.8;"/>
     </g>
     <g id="line2d_24">
      <g>
       <use style="stroke:#000000;stroke-width:0.8;" x="476.28" xlink:href="#m862e594a16" y="320.4"/>
      </g>
     </g>
     <g id="text_12">
      <!-- 0.55 -->
      <g transform="translate(462.920625 336.518125)scale(0.12 -0.12)">
       <use xlink:href="#DejaVuSans-48"/>
       <use x="63.623047" xlink:href="#DejaVuSans-46"/>
       <use x="95.410156" xlink:href="#DejaVuSans-53"/>
       <use x="159.033203" xlink:href="#DejaVuSans-53"/>
      </g>
     </g>
    </g>
    <g id="xtick_13">
     <g id="line2d_25">
      <path clip-path="url(#p14e7dee535)" d="M 509.76 320.4 
L 509.76 43.2 
" style="fill:none;stroke:#b0b0b0;stroke-linecap:square;stroke-width:0.8;"/>
     </g>
     <g id="line2d_26">
      <g>
       <use style="stroke:#000000;stroke-width:0.8;" x="509.76" xlink:href="#m862e594a16" y="320.4"/>
      </g>
     </g>
     <g id="text_13">
      <!-- 0.60 -->
      <g transform="translate(496.400625 336.518125)scale(0.12 -0.12)">
       <defs>
        <path d="M 33.015625 40.375 
Q 26.375 40.375 22.484375 35.828125 
Q 18.609375 31.296875 18.609375 23.390625 
Q 18.609375 15.53125 22.484375 10.953125 
Q 26.375 6.390625 33.015625 6.390625 
Q 39.65625 6.390625 43.53125 10.953125 
Q 47.40625 15.53125 47.40625 23.390625 
Q 47.40625 31.296875 43.53125 35.828125 
Q 39.65625 40.375 33.015625 40.375 
z
M 52.59375 71.296875 
L 52.59375 62.3125 
Q 48.875 64.0625 45.09375 64.984375 
Q 41.3125 65.921875 37.59375 65.921875 
Q 27.828125 65.921875 22.671875 59.328125 
Q 17.53125 52.734375 16.796875 39.40625 
Q 19.671875 43.65625 24.015625 45.921875 
Q 28.375 48.1875 33.59375 48.1875 
Q 44.578125 48.1875 50.953125 41.515625 
Q 57.328125 34.859375 57.328125 23.390625 
Q 57.328125 12.15625 50.6875 5.359375 
Q 44.046875 -1.421875 33.015625 -1.421875 
Q 20.359375 -1.421875 13.671875 8.265625 
Q 6.984375 17.96875 6.984375 36.375 
Q 6.984375 53.65625 15.1875 63.9375 
Q 23.390625 74.21875 37.203125 74.21875 
Q 40.921875 74.21875 44.703125 73.484375 
Q 48.484375 72.75 52.59375 71.296875 
z
" id="DejaVuSans-54"/>
       </defs>
       <use xlink:href="#DejaVuSans-48"/>
       <use x="63.623047" xlink:href="#DejaVuSans-46"/>
       <use x="95.410156" xlink:href="#DejaVuSans-54"/>
       <use x="159.033203" xlink:href="#DejaVuSans-48"/>
      </g>
     </g>
    </g>
    <g id="xtick_14">
     <g id="line2d_27">
      <path clip-path="url(#p14e7dee535)" d="M 543.24 320.4 
L 543.24 43.2 
" style="fill:none;stroke:#b0b0b0;stroke-linecap:square;stroke-width:0.8;"/>
     </g>
     <g id="line2d_28">
      <g>
       <use style="stroke:#000000;stroke-width:0.8;" x="543.24" xlink:href="#m862e594a16" y="320.4"/>
      </g>
     </g>
     <g id="text_14">
      <!-- 0.65 -->
      <g transform="translate(529.880625 336.518125)scale(0.12 -0.12)">
       <use xlink:href="#DejaVuSans-48"/>
       <use x="63.623047" xlink:href="#DejaVuSans-46"/>
       <use x="95.410156" xlink:href="#DejaVuSans-54"/>
       <use x="159.033203" xlink:href="#DejaVuSans-53"/>
      </g>
     </g>
    </g>
    <g id="xtick_15">
     <g id="line2d_29">
      <path clip-path="url(#p14e7dee535)" d="M 576.72 320.4 
L 576.72 43.2 
" style="fill:none;stroke:#b0b0b0;stroke-linecap:square;stroke-width:0.8;"/>
     </g>
     <g id="line2d_30">
      <g>
       <use style="stroke:#000000;stroke-width:0.8;" x="576.72" xlink:href="#m862e594a16" y="320.4"/>
      </g>
     </g>
     <g id="text_15">
      <!-- 0.70 -->
      <g transform="translate(563.360625 336.518125)scale(0.12 -0.12)">
       <defs>
        <path d="M 8.203125 72.90625 
L 55.078125 72.90625 
L 55.078125 68.703125 
L 28.609375 0 
L 18.3125 0 
L 43.21875 64.59375 
L 8.203125 64.59375 
z
" id="DejaVuSans-55"/>
       </defs>
       <use xlink:href="#DejaVuSans-48"/>
       <use x="63.623047" xlink:href="#DejaVuSans-46"/>
       <use x="95.410156" xlink:href="#DejaVuSans-55"/>
       <use x="159.033203" xlink:href="#DejaVuSans-48"/>
      </g>
     </g>
    </g>
    <g id="xtick_16">
     <g id="line2d_31">
      <path clip-path="url(#p14e7dee535)" d="M 610.2 320.4 
L 610.2 43.2 
" style="fill:none;stroke:#b0b0b0;stroke-linecap:square;stroke-width:0.8;"/>
     </g>
     <g id="line2d_32">
      <g>
       <use style="stroke:#000000;stroke-width:0.8;" x="610.2" xlink:href="#m862e594a16" y="320.4"/>
      </g>
     </g>
     <g id="text_16">
      <!-- 0.75 -->
      <g transform="translate(596.840625 336.518125)scale(0.12 -0.12)">
       <use xlink:href="#DejaVuSans-48"/>
       <use x="63.623047" xlink:href="#DejaVuSans-46"/>
       <use x="95.410156" xlink:href="#DejaVuSans-55"/>
       <use x="159.033203" xlink:href="#DejaVuSans-53"/>
      </g>
     </g>
    </g>
    <g id="xtick_17">
     <g id="line2d_33">
      <path clip-path="url(#p14e7dee535)" d="M 643.68 320.4 
L 643.68 43.2 
" style="fill:none;stroke:#b0b0b0;stroke-linecap:square;stroke-width:0.8;"/>
     </g>
     <g id="line2d_34">
      <g>
       <use style="stroke:#000000;stroke-width:0.8;" x="643.68" xlink:href="#m862e594a16" y="320.4"/>
      </g>
     </g>
     <g id="text_17">
      <!-- 0.80 -->
      <g transform="translate(630.320625 336.518125)scale(0.12 -0.12)">
       <defs>
        <path d="M 31.78125 34.625 
Q 24.75 34.625 20.71875 30.859375 
Q 16.703125 27.09375 16.703125 20.515625 
Q 16.703125 13.921875 20.71875 10.15625 
Q 24.75 6.390625 31.78125 6.390625 
Q 38.8125 6.390625 42.859375 10.171875 
Q 46.921875 13.96875 46.921875 20.515625 
Q 46.921875 27.09375 42.890625 30.859375 
Q 38.875 34.625 31.78125 34.625 
z
M 21.921875 38.8125 
Q 15.578125 40.375 12.03125 44.71875 
Q 8.5 49.078125 8.5 55.328125 
Q 8.5 64.0625 14.71875 69.140625 
Q 20.953125 74.21875 31.78125 74.21875 
Q 42.671875 74.21875 48.875 69.140625 
Q 55.078125 64.0625 55.078125 55.328125 
Q 55.078125 49.078125 51.53125 44.71875 
Q 48 40.375 41.703125 38.8125 
Q 48.828125 37.15625 52.796875 32.3125 
Q 56.78125 27.484375 56.78125 20.515625 
Q 56.78125 9.90625 50.3125 4.234375 
Q 43.84375 -1.421875 31.78125 -1.421875 
Q 19.734375 -1.421875 13.25 4.234375 
Q 6.78125 9.90625 6.78125 20.515625 
Q 6.78125 27.484375 10.78125 32.3125 
Q 14.796875 37.15625 21.921875 38.8125 
z
M 18.3125 54.390625 
Q 18.3125 48.734375 21.84375 45.5625 
Q 25.390625 42.390625 31.78125 42.390625 
Q 38.140625 42.390625 41.71875 45.5625 
Q 45.3125 48.734375 45.3125 54.390625 
Q 45.3125 60.0625 41.71875 63.234375 
Q 38.140625 66.40625 31.78125 66.40625 
Q 25.390625 66.40625 21.84375 63.234375 
Q 18.3125 60.0625 18.3125 54.390625 
z
" id="DejaVuSans-56"/>
       </defs>
       <use xlink:href="#DejaVuSans-48"/>
       <use x="63.623047" xlink:href="#DejaVuSans-46"/>
       <use x="95.410156" xlink:href="#DejaVuSans-56"/>
       <use x="159.033203" xlink:href="#DejaVuSans-48"/>
      </g>
     </g>
    </g>
    <g id="xtick_18">
     <g id="line2d_35">
      <path clip-path="url(#p14e7dee535)" d="M 677.16 320.4 
L 677.16 43.2 
" style="fill:none;stroke:#b0b0b0;stroke-linecap:square;stroke-width:0.8;"/>
     </g>
     <g id="line2d_36">
      <g>
       <use style="stroke:#000000;stroke-width:0.8;" x="677.16" xlink:href="#m862e594a16" y="320.4"/>
      </g>
     </g>
     <g id="text_18">
      <!-- 0.85 -->
      <g transform="translate(663.800625 336.518125)scale(0.12 -0.12)">
       <use xlink:href="#DejaVuSans-48"/>
       <use x="63.623047" xlink:href="#DejaVuSans-46"/>
       <use x="95.410156" xlink:href="#DejaVuSans-56"/>
       <use x="159.033203" xlink:href="#DejaVuSans-53"/>
      </g>
     </g>
    </g>
    <g id="xtick_19">
     <g id="line2d_37">
      <path clip-path="url(#p14e7dee535)" d="M 710.64 320.4 
L 710.64 43.2 
" style="fill:none;stroke:#b0b0b0;stroke-linecap:square;stroke-width:0.8;"/>
     </g>
     <g id="line2d_38">
      <g>
       <use style="stroke:#000000;stroke-width:0.8;" x="710.64" xlink:href="#m862e594a16" y="320.4"/>
      </g>
     </g>
     <g id="text_19">
      <!-- 0.90 -->
      <g transform="translate(697.280625 336.518125)scale(0.12 -0.12)">
       <defs>
        <path d="M 10.984375 1.515625 
L 10.984375 10.5 
Q 14.703125 8.734375 18.5 7.8125 
Q 22.3125 6.890625 25.984375 6.890625 
Q 35.75 6.890625 40.890625 13.453125 
Q 46.046875 20.015625 46.78125 33.40625 
Q 43.953125 29.203125 39.59375 26.953125 
Q 35.25 24.703125 29.984375 24.703125 
Q 19.046875 24.703125 12.671875 31.3125 
Q 6.296875 37.9375 6.296875 49.421875 
Q 6.296875 60.640625 12.9375 67.421875 
Q 19.578125 74.21875 30.609375 74.21875 
Q 43.265625 74.21875 49.921875 64.515625 
Q 56.59375 54.828125 56.59375 36.375 
Q 56.59375 19.140625 48.40625 8.859375 
Q 40.234375 -1.421875 26.421875 -1.421875 
Q 22.703125 -1.421875 18.890625 -0.6875 
Q 15.09375 0.046875 10.984375 1.515625 
z
M 30.609375 32.421875 
Q 37.25 32.421875 41.125 36.953125 
Q 45.015625 41.5 45.015625 49.421875 
Q 45.015625 57.28125 41.125 61.84375 
Q 37.25 66.40625 30.609375 66.40625 
Q 23.96875 66.40625 20.09375 61.84375 
Q 16.21875 57.28125 16.21875 49.421875 
Q 16.21875 41.5 20.09375 36.953125 
Q 23.96875 32.421875 30.609375 32.421875 
z
" id="DejaVuSans-57"/>
       </defs>
       <use xlink:href="#DejaVuSans-48"/>
       <use x="63.623047" xlink:href="#DejaVuSans-46"/>
       <use x="95.410156" xlink:href="#DejaVuSans-57"/>
       <use x="159.033203" xlink:href="#DejaVuSans-48"/>
      </g>
     </g>
    </g>
    <g id="xtick_20">
     <g id="line2d_39">
      <path clip-path="url(#p14e7dee535)" d="M 744.12 320.4 
L 744.12 43.2 
" style="fill:none;stroke:#b0b0b0;stroke-linecap:square;stroke-width:0.8;"/>
     </g>
     <g id="line2d_40">
      <g>
       <use style="stroke:#000000;stroke-width:0.8;" x="744.12" xlink:href="#m862e594a16" y="320.4"/>
      </g>
     </g>
     <g id="text_20">
      <!-- 0.95 -->
      <g transform="translate(730.760625 336.518125)scale(0.12 -0.12)">
       <use xlink:href="#DejaVuSans-48"/>
       <use x="63.623047" xlink:href="#DejaVuSans-46"/>
       <use x="95.410156" xlink:href="#DejaVuSans-57"/>
       <use x="159.033203" xlink:href="#DejaVuSans-53"/>
      </g>
     </g>
    </g>
    <g id="xtick_21">
     <g id="line2d_41">
      <path clip-path="url(#p14e7dee535)" d="M 777.6 320.4 
L 777.6 43.2 
" style="fill:none;stroke:#b0b0b0;stroke-linecap:square;stroke-width:0.8;"/>
     </g>
     <g id="line2d_42">
      <g>
       <use style="stroke:#000000;stroke-width:0.8;" x="777.6" xlink:href="#m862e594a16" y="320.4"/>
      </g>
     </g>
     <g id="text_21">
      <!-- 1.00 -->
      <g transform="translate(764.240625 336.518125)scale(0.12 -0.12)">
       <use xlink:href="#DejaVuSans-49"/>
       <use x="63.623047" xlink:href="#DejaVuSans-46"/>
       <use x="95.410156" xlink:href="#DejaVuSans-48"/>
       <use x="159.033203" xlink:href="#DejaVuSans-48"/>
      </g>
     </g>
    </g>
    <g id="text_22">
     <!-- $t$ -->
     <g transform="translate(440.4 352.131875)scale(0.12 -0.12)">
      <defs>
       <path d="M 42.28125 54.6875 
L 40.921875 47.703125 
L 23 47.703125 
L 17.1875 18.015625 
Q 16.890625 16.359375 16.75 15.234375 
Q 16.609375 14.109375 16.609375 13.484375 
Q 16.609375 10.359375 18.484375 8.9375 
Q 20.359375 7.515625 24.515625 7.515625 
L 33.59375 7.515625 
L 32.078125 0 
L 23.484375 0 
Q 15.484375 0 11.546875 3.125 
Q 7.625 6.25 7.625 12.59375 
Q 7.625 13.71875 7.765625 15.0625 
Q 7.90625 16.40625 8.203125 18.015625 
L 14.015625 47.703125 
L 6.390625 47.703125 
L 7.8125 54.6875 
L 15.28125 54.6875 
L 18.3125 70.21875 
L 27.296875 70.21875 
L 24.3125 54.6875 
z
" id="DejaVuSans-Oblique-116"/>
      </defs>
      <use transform="translate(0 0.78125)" xlink:href="#DejaVuSans-Oblique-116"/>
     </g>
    </g>
   </g>
   <g id="matplotlib.axis_2">
    <g id="ytick_1">
     <g id="line2d_43">
      <path clip-path="url(#p14e7dee535)" d="M 108 309.738462 
L 777.6 309.738462 
" style="fill:none;stroke:#b0b0b0;stroke-linecap:square;stroke-width:0.8;"/>
     </g>
     <g id="line2d_44">
      <defs>
       <path d="M 0 0 
L -3.5 0 
" id="m6461d051f1" style="stroke:#000000;stroke-width:0.8;"/>
      </defs>
      <g>
       <use style="stroke:#000000;stroke-width:0.8;" x="108" xlink:href="#m6461d051f1" y="309.738462"/>
      </g>
     </g>
     <g id="text_23">
      <!-- −0.2 -->
      <g transform="translate(71.860625 314.297524)scale(0.12 -0.12)">
       <defs>
        <path d="M 10.59375 35.5 
L 73.1875 35.5 
L 73.1875 27.203125 
L 10.59375 27.203125 
z
" id="DejaVuSans-8722"/>
       </defs>
       <use xlink:href="#DejaVuSans-8722"/>
       <use x="83.789062" xlink:href="#DejaVuSans-48"/>
       <use x="147.412109" xlink:href="#DejaVuSans-46"/>
       <use x="179.199219" xlink:href="#DejaVuSans-50"/>
      </g>
     </g>
    </g>
    <g id="ytick_2">
     <g id="line2d_45">
      <path clip-path="url(#p14e7dee535)" d="M 108 288.415385 
L 777.6 288.415385 
" style="fill:none;stroke:#b0b0b0;stroke-linecap:square;stroke-width:0.8;"/>
     </g>
     <g id="line2d_46">
      <g>
       <use style="stroke:#000000;stroke-width:0.8;" x="108" xlink:href="#m6461d051f1" y="288.415385"/>
      </g>
     </g>
     <g id="text_24">
      <!-- −0.1 -->
      <g transform="translate(71.860625 292.974447)scale(0.12 -0.12)">
       <use xlink:href="#DejaVuSans-8722"/>
       <use x="83.789062" xlink:href="#DejaVuSans-48"/>
       <use x="147.412109" xlink:href="#DejaVuSans-46"/>
       <use x="179.199219" xlink:href="#DejaVuSans-49"/>
      </g>
     </g>
    </g>
    <g id="ytick_3">
     <g id="line2d_47">
      <path clip-path="url(#p14e7dee535)" d="M 108 267.092308 
L 777.6 267.092308 
" style="fill:none;stroke:#b0b0b0;stroke-linecap:square;stroke-width:0.8;"/>
     </g>
     <g id="line2d_48">
      <g>
       <use style="stroke:#000000;stroke-width:0.8;" x="108" xlink:href="#m6461d051f1" y="267.092308"/>
      </g>
     </g>
     <g id="text_25">
      <!-- 0.0 -->
      <g transform="translate(81.91625 271.65137)scale(0.12 -0.12)">
       <use xlink:href="#DejaVuSans-48"/>
       <use x="63.623047" xlink:href="#DejaVuSans-46"/>
       <use x="95.410156" xlink:href="#DejaVuSans-48"/>
      </g>
     </g>
    </g>
    <g id="ytick_4">
     <g id="line2d_49">
      <path clip-path="url(#p14e7dee535)" d="M 108 245.769231 
L 777.6 245.769231 
" style="fill:none;stroke:#b0b0b0;stroke-linecap:square;stroke-width:0.8;"/>
     </g>
     <g id="line2d_50">
      <g>
       <use style="stroke:#000000;stroke-width:0.8;" x="108" xlink:href="#m6461d051f1" y="245.769231"/>
      </g>
     </g>
     <g id="text_26">
      <!-- 0.1 -->
      <g transform="translate(81.91625 250.328293)scale(0.12 -0.12)">
       <use xlink:href="#DejaVuSans-48"/>
       <use x="63.623047" xlink:href="#DejaVuSans-46"/>
       <use x="95.410156" xlink:href="#DejaVuSans-49"/>
      </g>
     </g>
    </g>
    <g id="ytick_5">
     <g id="line2d_51">
      <path clip-path="url(#p14e7dee535)" d="M 108 224.446154 
L 777.6 224.446154 
" style="fill:none;stroke:#b0b0b0;stroke-linecap:square;stroke-width:0.8;"/>
     </g>
     <g id="line2d_52">
      <g>
       <use style="stroke:#000000;stroke-width:0.8;" x="108" xlink:href="#m6461d051f1" y="224.446154"/>
      </g>
     </g>
     <g id="text_27">
      <!-- 0.2 -->
      <g transform="translate(81.91625 229.005216)scale(0.12 -0.12)">
       <use xlink:href="#DejaVuSans-48"/>
       <use x="63.623047" xlink:href="#DejaVuSans-46"/>
       <use x="95.410156" xlink:href="#DejaVuSans-50"/>
      </g>
     </g>
    </g>
    <g id="ytick_6">
     <g id="line2d_53">
      <path clip-path="url(#p14e7dee535)" d="M 108 203.123077 
L 777.6 203.123077 
" style="fill:none;stroke:#b0b0b0;stroke-linecap:square;stroke-width:0.8;"/>
     </g>
     <g id="line2d_54">
      <g>
       <use style="stroke:#000000;stroke-width:0.8;" x="108" xlink:href="#m6461d051f1" y="203.123077"/>
      </g>
     </g>
     <g id="text_28">
      <!-- 0.3 -->
      <g transform="translate(81.91625 207.682139)scale(0.12 -0.12)">
       <use xlink:href="#DejaVuSans-48"/>
       <use x="63.623047" xlink:href="#DejaVuSans-46"/>
       <use x="95.410156" xlink:href="#DejaVuSans-51"/>
      </g>
     </g>
    </g>
    <g id="ytick_7">
     <g id="line2d_55">
      <path clip-path="url(#p14e7dee535)" d="M 108 181.8 
L 777.6 181.8 
" style="fill:none;stroke:#b0b0b0;stroke-linecap:square;stroke-width:0.8;"/>
     </g>
     <g id="line2d_56">
      <g>
       <use style="stroke:#000000;stroke-width:0.8;" x="108" xlink:href="#m6461d051f1" y="181.8"/>
      </g>
     </g>
     <g id="text_29">
      <!-- 0.4 -->
      <g transform="translate(81.91625 186.359062)scale(0.12 -0.12)">
       <use xlink:href="#DejaVuSans-48"/>
       <use x="63.623047" xlink:href="#DejaVuSans-46"/>
       <use x="95.410156" xlink:href="#DejaVuSans-52"/>
      </g>
     </g>
    </g>
    <g id="ytick_8">
     <g id="line2d_57">
      <path clip-path="url(#p14e7dee535)" d="M 108 160.476923 
L 777.6 160.476923 
" style="fill:none;stroke:#b0b0b0;stroke-linecap:square;stroke-width:0.8;"/>
     </g>
     <g id="line2d_58">
      <g>
       <use style="stroke:#000000;stroke-width:0.8;" x="108" xlink:href="#m6461d051f1" y="160.476923"/>
      </g>
     </g>
     <g id="text_30">
      <!-- 0.5 -->
      <g transform="translate(81.91625 165.035986)scale(0.12 -0.12)">
       <use xlink:href="#DejaVuSans-48"/>
       <use x="63.623047" xlink:href="#DejaVuSans-46"/>
       <use x="95.410156" xlink:href="#DejaVuSans-53"/>
      </g>
     </g>
    </g>
    <g id="ytick_9">
     <g id="line2d_59">
      <path clip-path="url(#p14e7dee535)" d="M 108 139.153846 
L 777.6 139.153846 
" style="fill:none;stroke:#b0b0b0;stroke-linecap:square;stroke-width:0.8;"/>
     </g>
     <g id="line2d_60">
      <g>
       <use style="stroke:#000000;stroke-width:0.8;" x="108" xlink:href="#m6461d051f1" y="139.153846"/>
      </g>
     </g>
     <g id="text_31">
      <!-- 0.6 -->
      <g transform="translate(81.91625 143.712909)scale(0.12 -0.12)">
       <use xlink:href="#DejaVuSans-48"/>
       <use x="63.623047" xlink:href="#DejaVuSans-46"/>
       <use x="95.410156" xlink:href="#DejaVuSans-54"/>
      </g>
     </g>
    </g>
    <g id="ytick_10">
     <g id="line2d_61">
      <path clip-path="url(#p14e7dee535)" d="M 108 117.830769 
L 777.6 117.830769 
" style="fill:none;stroke:#b0b0b0;stroke-linecap:square;stroke-width:0.8;"/>
     </g>
     <g id="line2d_62">
      <g>
       <use style="stroke:#000000;stroke-width:0.8;" x="108" xlink:href="#m6461d051f1" y="117.830769"/>
      </g>
     </g>
     <g id="text_32">
      <!-- 0.7 -->
      <g transform="translate(81.91625 122.389832)scale(0.12 -0.12)">
       <use xlink:href="#DejaVuSans-48"/>
       <use x="63.623047" xlink:href="#DejaVuSans-46"/>
       <use x="95.410156" xlink:href="#DejaVuSans-55"/>
      </g>
     </g>
    </g>
    <g id="ytick_11">
     <g id="line2d_63">
      <path clip-path="url(#p14e7dee535)" d="M 108 96.507692 
L 777.6 96.507692 
" style="fill:none;stroke:#b0b0b0;stroke-linecap:square;stroke-width:0.8;"/>
     </g>
     <g id="line2d_64">
      <g>
       <use style="stroke:#000000;stroke-width:0.8;" x="108" xlink:href="#m6461d051f1" y="96.507692"/>
      </g>
     </g>
     <g id="text_33">
      <!-- 0.8 -->
      <g transform="translate(81.91625 101.066755)scale(0.12 -0.12)">
       <use xlink:href="#DejaVuSans-48"/>
       <use x="63.623047" xlink:href="#DejaVuSans-46"/>
       <use x="95.410156" xlink:href="#DejaVuSans-56"/>
      </g>
     </g>
    </g>
    <g id="ytick_12">
     <g id="line2d_65">
      <path clip-path="url(#p14e7dee535)" d="M 108 75.184615 
L 777.6 75.184615 
" style="fill:none;stroke:#b0b0b0;stroke-linecap:square;stroke-width:0.8;"/>
     </g>
     <g id="line2d_66">
      <g>
       <use style="stroke:#000000;stroke-width:0.8;" x="108" xlink:href="#m6461d051f1" y="75.184615"/>
      </g>
     </g>
     <g id="text_34">
      <!-- 0.9 -->
      <g transform="translate(81.91625 79.743678)scale(0.12 -0.12)">
       <use xlink:href="#DejaVuSans-48"/>
       <use x="63.623047" xlink:href="#DejaVuSans-46"/>
       <use x="95.410156" xlink:href="#DejaVuSans-57"/>
      </g>
     </g>
    </g>
    <g id="ytick_13">
     <g id="line2d_67">
      <path clip-path="url(#p14e7dee535)" d="M 108 53.861538 
L 777.6 53.861538 
" style="fill:none;stroke:#b0b0b0;stroke-linecap:square;stroke-width:0.8;"/>
     </g>
     <g id="line2d_68">
      <g>
       <use style="stroke:#000000;stroke-width:0.8;" x="108" xlink:href="#m6461d051f1" y="53.861538"/>
      </g>
     </g>
     <g id="text_35">
      <!-- 1.0 -->
      <g transform="translate(81.91625 58.420601)scale(0.12 -0.12)">
       <use xlink:href="#DejaVuSans-49"/>
       <use x="63.623047" xlink:href="#DejaVuSans-46"/>
       <use x="95.410156" xlink:href="#DejaVuSans-48"/>
      </g>
     </g>
    </g>
    <g id="text_36">
     <!-- Hermite Basic func. -->
     <g transform="translate(65.365 240.542812)rotate(-90)scale(0.12 -0.12)">
      <defs>
       <path d="M 9.8125 72.90625 
L 19.671875 72.90625 
L 19.671875 43.015625 
L 55.515625 43.015625 
L 55.515625 72.90625 
L 65.375 72.90625 
L 65.375 0 
L 55.515625 0 
L 55.515625 34.71875 
L 19.671875 34.71875 
L 19.671875 0 
L 9.8125 0 
z
" id="DejaVuSans-72"/>
       <path d="M 56.203125 29.59375 
L 56.203125 25.203125 
L 14.890625 25.203125 
Q 15.484375 15.921875 20.484375 11.0625 
Q 25.484375 6.203125 34.421875 6.203125 
Q 39.59375 6.203125 44.453125 7.46875 
Q 49.3125 8.734375 54.109375 11.28125 
L 54.109375 2.78125 
Q 49.265625 0.734375 44.1875 -0.34375 
Q 39.109375 -1.421875 33.890625 -1.421875 
Q 20.796875 -1.421875 13.15625 6.1875 
Q 5.515625 13.8125 5.515625 26.8125 
Q 5.515625 40.234375 12.765625 48.109375 
Q 20.015625 56 32.328125 56 
Q 43.359375 56 49.78125 48.890625 
Q 56.203125 41.796875 56.203125 29.59375 
z
M 47.21875 32.234375 
Q 47.125 39.59375 43.09375 43.984375 
Q 39.0625 48.390625 32.421875 48.390625 
Q 24.90625 48.390625 20.390625 44.140625 
Q 15.875 39.890625 15.1875 32.171875 
z
" id="DejaVuSans-101"/>
       <path d="M 41.109375 46.296875 
Q 39.59375 47.171875 37.8125 47.578125 
Q 36.03125 48 33.890625 48 
Q 26.265625 48 22.1875 43.046875 
Q 18.109375 38.09375 18.109375 28.8125 
L 18.109375 0 
L 9.078125 0 
L 9.078125 54.6875 
L 18.109375 54.6875 
L 18.109375 46.1875 
Q 20.953125 51.171875 25.484375 53.578125 
Q 30.03125 56 36.53125 56 
Q 37.453125 56 38.578125 55.875 
Q 39.703125 55.765625 41.0625 55.515625 
z
" id="DejaVuSans-114"/>
       <path d="M 52 44.1875 
Q 55.375 50.25 60.0625 53.125 
Q 64.75 56 71.09375 56 
Q 79.640625 56 84.28125 50.015625 
Q 88.921875 44.046875 88.921875 33.015625 
L 88.921875 0 
L 79.890625 0 
L 79.890625 32.71875 
Q 79.890625 40.578125 77.09375 44.375 
Q 74.3125 48.1875 68.609375 48.1875 
Q 61.625 48.1875 57.5625 43.546875 
Q 53.515625 38.921875 53.515625 30.90625 
L 53.515625 0 
L 44.484375 0 
L 44.484375 32.71875 
Q 44.484375 40.625 41.703125 44.40625 
Q 38.921875 48.1875 33.109375 48.1875 
Q 26.21875 48.1875 22.15625 43.53125 
Q 18.109375 38.875 18.109375 30.90625 
L 18.109375 0 
L 9.078125 0 
L 9.078125 54.6875 
L 18.109375 54.6875 
L 18.109375 46.1875 
Q 21.1875 51.21875 25.484375 53.609375 
Q 29.78125 56 35.6875 56 
Q 41.65625 56 45.828125 52.96875 
Q 50 49.953125 52 44.1875 
z
" id="DejaVuSans-109"/>
       <path d="M 9.421875 54.6875 
L 18.40625 54.6875 
L 18.40625 0 
L 9.421875 0 
z
M 9.421875 75.984375 
L 18.40625 75.984375 
L 18.40625 64.59375 
L 9.421875 64.59375 
z
" id="DejaVuSans-105"/>
       <path d="M 18.3125 70.21875 
L 18.3125 54.6875 
L 36.8125 54.6875 
L 36.8125 47.703125 
L 18.3125 47.703125 
L 18.3125 18.015625 
Q 18.3125 11.328125 20.140625 9.421875 
Q 21.96875 7.515625 27.59375 7.515625 
L 36.8125 7.515625 
L 36.8125 0 
L 27.59375 0 
Q 17.1875 0 13.234375 3.875 
Q 9.28125 7.765625 9.28125 18.015625 
L 9.28125 47.703125 
L 2.6875 47.703125 
L 2.6875 54.6875 
L 9.28125 54.6875 
L 9.28125 70.21875 
z
" id="DejaVuSans-116"/>
       <path id="DejaVuSans-32"/>
       <path d="M 19.671875 34.8125 
L 19.671875 8.109375 
L 35.5 8.109375 
Q 43.453125 8.109375 47.28125 11.40625 
Q 51.125 14.703125 51.125 21.484375 
Q 51.125 28.328125 47.28125 31.5625 
Q 43.453125 34.8125 35.5 34.8125 
z
M 19.671875 64.796875 
L 19.671875 42.828125 
L 34.28125 42.828125 
Q 41.5 42.828125 45.03125 45.53125 
Q 48.578125 48.25 48.578125 53.8125 
Q 48.578125 59.328125 45.03125 62.0625 
Q 41.5 64.796875 34.28125 64.796875 
z
M 9.8125 72.90625 
L 35.015625 72.90625 
Q 46.296875 72.90625 52.390625 68.21875 
Q 58.5 63.53125 58.5 54.890625 
Q 58.5 48.1875 55.375 44.234375 
Q 52.25 40.28125 46.1875 39.3125 
Q 53.46875 37.75 57.5 32.78125 
Q 61.53125 27.828125 61.53125 20.40625 
Q 61.53125 10.640625 54.890625 5.3125 
Q 48.25 0 35.984375 0 
L 9.8125 0 
z
" id="DejaVuSans-66"/>
       <path d="M 34.28125 27.484375 
Q 23.390625 27.484375 19.1875 25 
Q 14.984375 22.515625 14.984375 16.5 
Q 14.984375 11.71875 18.140625 8.90625 
Q 21.296875 6.109375 26.703125 6.109375 
Q 34.1875 6.109375 38.703125 11.40625 
Q 43.21875 16.703125 43.21875 25.484375 
L 43.21875 27.484375 
z
M 52.203125 31.203125 
L 52.203125 0 
L 43.21875 0 
L 43.21875 8.296875 
Q 40.140625 3.328125 35.546875 0.953125 
Q 30.953125 -1.421875 24.3125 -1.421875 
Q 15.921875 -1.421875 10.953125 3.296875 
Q 6 8.015625 6 15.921875 
Q 6 25.140625 12.171875 29.828125 
Q 18.359375 34.515625 30.609375 34.515625 
L 43.21875 34.515625 
L 43.21875 35.40625 
Q 43.21875 41.609375 39.140625 45 
Q 35.0625 48.390625 27.6875 48.390625 
Q 23 48.390625 18.546875 47.265625 
Q 14.109375 46.140625 10.015625 43.890625 
L 10.015625 52.203125 
Q 14.9375 54.109375 19.578125 55.046875 
Q 24.21875 56 28.609375 56 
Q 40.484375 56 46.34375 49.84375 
Q 52.203125 43.703125 52.203125 31.203125 
z
" id="DejaVuSans-97"/>
       <path d="M 44.28125 53.078125 
L 44.28125 44.578125 
Q 40.484375 46.53125 36.375 47.5 
Q 32.28125 48.484375 27.875 48.484375 
Q 21.1875 48.484375 17.84375 46.4375 
Q 14.5 44.390625 14.5 40.28125 
Q 14.5 37.15625 16.890625 35.375 
Q 19.28125 33.59375 26.515625 31.984375 
L 29.59375 31.296875 
Q 39.15625 29.25 43.1875 25.515625 
Q 47.21875 21.78125 47.21875 15.09375 
Q 47.21875 7.46875 41.1875 3.015625 
Q 35.15625 -1.421875 24.609375 -1.421875 
Q 20.21875 -1.421875 15.453125 -0.5625 
Q 10.6875 0.296875 5.421875 2 
L 5.421875 11.28125 
Q 10.40625 8.6875 15.234375 7.390625 
Q 20.0625 6.109375 24.8125 6.109375 
Q 31.15625 6.109375 34.5625 8.28125 
Q 37.984375 10.453125 37.984375 14.40625 
Q 37.984375 18.0625 35.515625 20.015625 
Q 33.0625 21.96875 24.703125 23.78125 
L 21.578125 24.515625 
Q 13.234375 26.265625 9.515625 29.90625 
Q 5.8125 33.546875 5.8125 39.890625 
Q 5.8125 47.609375 11.28125 51.796875 
Q 16.75 56 26.8125 56 
Q 31.78125 56 36.171875 55.265625 
Q 40.578125 54.546875 44.28125 53.078125 
z
" id="DejaVuSans-115"/>
       <path d="M 48.78125 52.59375 
L 48.78125 44.1875 
Q 44.96875 46.296875 41.140625 47.34375 
Q 37.3125 48.390625 33.40625 48.390625 
Q 24.65625 48.390625 19.8125 42.84375 
Q 14.984375 37.3125 14.984375 27.296875 
Q 14.984375 17.28125 19.8125 11.734375 
Q 24.65625 6.203125 33.40625 6.203125 
Q 37.3125 6.203125 41.140625 7.25 
Q 44.96875 8.296875 48.78125 10.40625 
L 48.78125 2.09375 
Q 45.015625 0.34375 40.984375 -0.53125 
Q 36.96875 -1.421875 32.421875 -1.421875 
Q 20.0625 -1.421875 12.78125 6.34375 
Q 5.515625 14.109375 5.515625 27.296875 
Q 5.515625 40.671875 12.859375 48.328125 
Q 20.21875 56 33.015625 56 
Q 37.15625 56 41.109375 55.140625 
Q 45.0625 54.296875 48.78125 52.59375 
z
" id="DejaVuSans-99"/>
       <path d="M 37.109375 75.984375 
L 37.109375 68.5 
L 28.515625 68.5 
Q 23.6875 68.5 21.796875 66.546875 
Q 19.921875 64.59375 19.921875 59.515625 
L 19.921875 54.6875 
L 34.71875 54.6875 
L 34.71875 47.703125 
L 19.921875 47.703125 
L 19.921875 0 
L 10.890625 0 
L 10.890625 47.703125 
L 2.296875 47.703125 
L 2.296875 54.6875 
L 10.890625 54.6875 
L 10.890625 58.5 
Q 10.890625 67.625 15.140625 71.796875 
Q 19.390625 75.984375 28.609375 75.984375 
z
" id="DejaVuSans-102"/>
       <path d="M 8.5 21.578125 
L 8.5 54.6875 
L 17.484375 54.6875 
L 17.484375 21.921875 
Q 17.484375 14.15625 20.5 10.265625 
Q 23.53125 6.390625 29.59375 6.390625 
Q 36.859375 6.390625 41.078125 11.03125 
Q 45.3125 15.671875 45.3125 23.6875 
L 45.3125 54.6875 
L 54.296875 54.6875 
L 54.296875 0 
L 45.3125 0 
L 45.3125 8.40625 
Q 42.046875 3.421875 37.71875 1 
Q 33.40625 -1.421875 27.6875 -1.421875 
Q 18.265625 -1.421875 13.375 4.4375 
Q 8.5 10.296875 8.5 21.578125 
z
M 31.109375 56 
z
" id="DejaVuSans-117"/>
       <path d="M 54.890625 33.015625 
L 54.890625 0 
L 45.90625 0 
L 45.90625 32.71875 
Q 45.90625 40.484375 42.875 44.328125 
Q 39.84375 48.1875 33.796875 48.1875 
Q 26.515625 48.1875 22.3125 43.546875 
Q 18.109375 38.921875 18.109375 30.90625 
L 18.109375 0 
L 9.078125 0 
L 9.078125 54.6875 
L 18.109375 54.6875 
L 18.109375 46.1875 
Q 21.34375 51.125 25.703125 53.5625 
Q 30.078125 56 35.796875 56 
Q 45.21875 56 50.046875 50.171875 
Q 54.890625 44.34375 54.890625 33.015625 
z
" id="DejaVuSans-110"/>
      </defs>
      <use xlink:href="#DejaVuSans-72"/>
      <use x="75.195312" xlink:href="#DejaVuSans-101"/>
      <use x="136.71875" xlink:href="#DejaVuSans-114"/>
      <use x="176.082031" xlink:href="#DejaVuSans-109"/>
      <use x="273.494141" xlink:href="#DejaVuSans-105"/>
      <use x="301.277344" xlink:href="#DejaVuSans-116"/>
      <use x="340.486328" xlink:href="#DejaVuSans-101"/>
      <use x="402.009766" xlink:href="#DejaVuSans-32"/>
      <use x="433.796875" xlink:href="#DejaVuSans-66"/>
      <use x="502.400391" xlink:href="#DejaVuSans-97"/>
      <use x="563.679688" xlink:href="#DejaVuSans-115"/>
      <use x="615.779297" xlink:href="#DejaVuSans-105"/>
      <use x="643.5625" xlink:href="#DejaVuSans-99"/>
      <use x="698.542969" xlink:href="#DejaVuSans-32"/>
      <use x="730.330078" xlink:href="#DejaVuSans-102"/>
      <use x="765.535156" xlink:href="#DejaVuSans-117"/>
      <use x="828.914062" xlink:href="#DejaVuSans-110"/>
      <use x="892.292969" xlink:href="#DejaVuSans-99"/>
      <use x="947.273438" xlink:href="#DejaVuSans-46"/>
     </g>
    </g>
   </g>
   <g id="line2d_69">
    <path clip-path="url(#p14e7dee535)" d="M 108 53.861538 
L 114.696 53.861611 
L 121.392 53.862676 
L 128.088 53.867159 
L 134.784 53.87887 
L 141.48 53.902815 
L 148.176 53.945017 
L 154.872 54.012344 
L 161.568 54.112357 
L 168.264 54.253154 
L 174.96 54.443232 
L 181.656 54.691354 
L 188.352 55.006431 
L 195.048 55.3974 
L 201.744 55.873128 
L 208.44 56.442307 
L 215.136 57.113367 
L 221.832 57.894396 
L 228.528 58.793063 
L 235.224 59.816553 
L 241.92 60.971505 
L 248.616 62.263964 
L 255.312 63.699327 
L 262.008 65.28231 
L 268.704 67.016912 
L 275.4 68.906385 
L 282.096 70.953218 
L 288.792 73.159114 
L 295.488 75.524984 
L 302.184 78.050939 
L 308.88 80.736292 
L 315.576 83.579557 
L 322.272 86.578463 
L 328.968 89.729964 
L 335.664 93.030256 
L 342.36 96.474798 
L 349.056 100.058337 
L 355.752 103.774935 
L 362.448 107.618 
L 369.144 111.580323 
L 375.84 115.65411 
L 382.536 119.831024 
L 389.232 124.102229 
L 395.928 128.45843 
L 402.624 132.889921 
L 409.32 137.386633 
L 416.016 141.938182 
L 422.712 146.533921 
L 429.408 151.162989 
L 436.104 155.814365 
L 442.8 160.476923 
L 449.496 165.139481 
L 456.192 169.790857 
L 462.888 174.419925 
L 469.584 179.015664 
L 476.28 183.567213 
L 482.976 188.063925 
L 489.672 192.495417 
L 496.368 196.851617 
L 503.064 201.122822 
L 509.76 205.299737 
L 516.456 209.373523 
L 523.152 213.335846 
L 529.848 217.178911 
L 536.544 220.895509 
L 543.24 224.479048 
L 549.936 227.92359 
L 556.632 231.223882 
L 563.328 234.375383 
L 570.024 237.374289 
L 576.72 240.217554 
L 583.416 242.902907 
L 590.112 245.428862 
L 596.808 247.794732 
L 603.504 250.000628 
L 610.2 252.047461 
L 616.896 253.936935 
L 623.592 255.671536 
L 630.288 257.25452 
L 636.984 258.689883 
L 643.68 259.982341 
L 650.376 261.137294 
L 657.072 262.160783 
L 663.768 263.05945 
L 670.464 263.840479 
L 677.16 264.511539 
L 683.856 265.080718 
L 690.552 265.556446 
L 697.248 265.947415 
L 703.944 266.262492 
L 710.64 266.510614 
L 717.336 266.700692 
L 724.032 266.841489 
L 730.728 266.941502 
L 737.424 267.00883 
L 744.12 267.051031 
L 750.816 267.074976 
L 757.512 267.086687 
L 764.208 267.09117 
L 770.904 267.092235 
L 777.6 267.092308 
" style="fill:none;stroke:#1f77b4;stroke-linecap:square;stroke-width:1.5;"/>
   </g>
   <g id="line2d_70">
    <path clip-path="url(#p14e7dee535)" d="M 108 267.092308 
L 114.696 264.960042 
L 121.392 262.828344 
L 128.088 260.698611 
L 134.784 258.573043 
L 141.48 256.454543 
L 148.176 254.346622 
L 154.872 252.253306 
L 161.568 250.17905 
L 168.264 248.128658 
L 174.96 246.107202 
L 181.656 244.119954 
L 188.352 242.172319 
L 195.048 240.269769 
L 201.744 238.417783 
L 208.44 236.621799 
L 215.136 234.887157 
L 221.832 233.219057 
L 228.528 231.622513 
L 235.224 230.102317 
L 241.92 228.663006 
L 248.616 227.308823 
L 255.312 226.043699 
L 262.008 224.871222 
L 268.704 223.794617 
L 275.4 222.816729 
L 282.096 221.940009 
L 288.792 221.166498 
L 295.488 220.497824 
L 302.184 219.935189 
L 308.88 219.47937 
L 315.576 219.130714 
L 322.272 218.889144 
L 328.968 218.754158 
L 335.664 218.724835 
L 342.36 218.799845 
L 349.056 218.977458 
L 355.752 219.255553 
L 362.448 219.631637 
L 369.144 220.102852 
L 375.84 220.665999 
L 382.536 221.317551 
L 389.232 222.053676 
L 395.928 222.870254 
L 402.624 223.762901 
L 409.32 224.72699 
L 416.016 225.757679 
L 422.712 226.849927 
L 429.408 227.998529 
L 436.104 229.198132 
L 442.8 230.443269 
L 449.496 231.728382 
L 456.192 233.047848 
L 462.888 234.396007 
L 469.584 235.767189 
L 476.28 237.155742 
L 482.976 238.556057 
L 489.672 239.962593 
L 496.368 241.369909 
L 503.064 242.772681 
L 509.76 244.165735 
L 516.456 245.544067 
L 523.152 246.902867 
L 529.848 248.237542 
L 536.544 249.543736 
L 543.24 250.817354 
L 549.936 252.054578 
L 556.632 253.251886 
L 563.328 254.406066 
L 570.024 255.514234 
L 576.72 256.573847 
L 583.416 257.582711 
L 590.112 258.538994 
L 596.808 259.441231 
L 603.504 260.288329 
L 610.2 261.079575 
L 616.896 261.814629 
L 623.592 262.493528 
L 630.288 263.116681 
L 636.984 263.68486 
L 643.68 264.199193 
L 650.376 264.661149 
L 657.072 265.072526 
L 663.768 265.43543 
L 670.464 265.752251 
L 677.16 266.025646 
L 683.856 266.258501 
L 690.552 266.453907 
L 697.248 266.61512 
L 703.944 266.745523 
L 710.64 266.848585 
L 717.336 266.927811 
L 724.032 266.986693 
L 730.728 267.028654 
L 737.424 267.05699 
L 744.12 267.074804 
L 750.816 267.084942 
L 757.512 267.089914 
L 764.208 267.091822 
L 770.904 267.092277 
L 777.6 267.092308 
" style="fill:none;stroke:#ff7f0e;stroke-linecap:square;stroke-width:1.5;"/>
   </g>
   <g id="line2d_71">
    <path clip-path="url(#p14e7dee535)" d="M 108 267.092308 
L 114.696 267.081657 
L 121.392 267.049825 
L 128.088 266.997167 
L 134.784 266.924241 
L 141.48 266.831791 
L 148.176 266.720725 
L 154.872 266.592092 
L 161.568 266.447062 
L 168.264 266.286912 
L 174.96 266.113003 
L 181.656 265.926766 
L 188.352 265.729688 
L 195.048 265.523292 
L 201.744 265.309131 
L 208.44 265.088767 
L 215.136 264.863766 
L 221.832 264.63568 
L 228.528 264.406043 
L 235.224 264.176359 
L 241.92 263.948092 
L 248.616 263.722659 
L 255.312 263.501423 
L 262.008 263.285686 
L 268.704 263.076686 
L 275.4 262.875586 
L 282.096 262.683475 
L 288.792 262.501362 
L 295.488 262.330172 
L 302.184 262.170745 
L 308.88 262.023834 
L 315.576 261.8901 
L 322.272 261.770118 
L 328.968 261.664369 
L 335.664 261.573243 
L 342.36 261.497043 
L 349.056 261.435979 
L 355.752 261.390177 
L 362.448 261.359672 
L 369.144 261.344418 
L 375.84 261.344288 
L 382.536 261.359075 
L 389.232 261.388495 
L 395.928 261.432195 
L 402.624 261.489749 
L 409.32 261.56067 
L 416.016 261.64441 
L 422.712 261.740364 
L 429.408 261.847874 
L 436.104 261.966239 
L 442.8 262.094712 
L 449.496 262.232511 
L 456.192 262.378822 
L 462.888 262.532803 
L 469.584 262.693593 
L 476.28 262.860311 
L 482.976 263.032068 
L 489.672 263.207968 
L 496.368 263.387112 
L 503.064 263.56861 
L 509.76 263.751579 
L 516.456 263.935149 
L 523.152 264.118473 
L 529.848 264.300725 
L 536.544 264.48111 
L 543.24 264.658864 
L 549.936 264.833263 
L 556.632 265.003622 
L 563.328 265.169302 
L 570.024 265.329712 
L 576.72 265.484313 
L 583.416 265.632621 
L 590.112 265.774207 
L 596.808 265.908703 
L 603.504 266.035802 
L 610.2 266.155258 
L 616.896 266.266891 
L 623.592 266.370581 
L 630.288 266.466275 
L 636.984 266.553983 
L 643.68 266.633776 
L 650.376 266.705789 
L 657.072 266.770215 
L 663.768 266.827302 
L 670.464 266.877354 
L 677.16 266.920724 
L 683.856 266.957811 
L 690.552 266.989053 
L 697.248 267.014924 
L 703.944 267.035926 
L 710.64 267.052583 
L 717.336 267.06543 
L 724.032 267.075009 
L 730.728 267.081858 
L 737.424 267.086496 
L 744.12 267.089421 
L 750.816 267.09109 
L 757.512 267.091911 
L 764.208 267.092227 
L 770.904 267.092303 
L 777.6 267.092308 
" style="fill:none;stroke:#2ca02c;stroke-linecap:square;stroke-width:1.5;"/>
   </g>
   <g id="line2d_72">
    <path clip-path="url(#p14e7dee535)" d="M 108 267.092308 
L 114.696 267.092274 
L 121.392 267.092045 
L 128.088 267.091458 
L 134.784 267.090376 
L 141.48 267.088689 
L 148.176 267.086314 
L 154.872 267.083189 
L 161.568 267.079272 
L 168.264 267.074542 
L 174.96 267.068991 
L 181.656 267.06263 
L 188.352 267.05548 
L 195.048 267.047577 
L 201.744 267.038965 
L 208.44 267.029697 
L 215.136 267.019835 
L 221.832 267.009445 
L 228.528 266.998601 
L 235.224 266.987378 
L 241.92 266.975855 
L 248.616 266.964115 
L 255.312 266.952238 
L 262.008 266.940307 
L 268.704 266.928405 
L 275.4 266.916611 
L 282.096 266.905004 
L 288.792 266.893661 
L 295.488 266.882654 
L 302.184 266.872053 
L 308.88 266.861923 
L 315.576 266.852325 
L 322.272 266.843316 
L 328.968 266.834949 
L 335.664 266.827268 
L 342.36 266.820316 
L 349.056 266.814128 
L 355.752 266.808734 
L 362.448 266.804159 
L 369.144 266.800423 
L 375.84 266.797537 
L 382.536 266.795512 
L 389.232 266.794347 
L 395.928 266.794042 
L 402.624 266.794587 
L 409.32 266.79597 
L 416.016 266.798172 
L 422.712 266.801172 
L 429.408 266.804941 
L 436.104 266.80945 
L 442.8 266.814663 
L 449.496 266.820543 
L 456.192 266.827047 
L 462.888 266.834131 
L 469.584 266.841748 
L 476.28 266.84985 
L 482.976 266.858384 
L 489.672 266.8673 
L 496.368 266.876543 
L 503.064 266.88606 
L 509.76 266.895794 
L 516.456 266.905693 
L 523.152 266.915701 
L 529.848 266.925764 
L 536.544 266.935831 
L 543.24 266.94585 
L 549.936 266.955772 
L 556.632 266.965549 
L 563.328 266.975135 
L 570.024 266.984489 
L 576.72 266.993571 
L 583.416 267.002344 
L 590.112 267.010776 
L 596.808 267.018836 
L 603.504 267.026498 
L 610.2 267.033742 
L 616.896 267.040549 
L 623.592 267.046905 
L 630.288 267.052801 
L 636.984 267.058231 
L 643.68 267.063195 
L 650.376 267.067694 
L 657.072 267.071738 
L 663.768 267.075336 
L 670.464 267.078503 
L 677.16 267.081259 
L 683.856 267.083624 
L 690.552 267.085624 
L 697.248 267.087286 
L 703.944 267.08864 
L 710.64 267.089717 
L 717.336 267.090551 
L 724.032 267.091174 
L 730.728 267.091621 
L 737.424 267.091925 
L 744.12 267.092117 
L 750.816 267.092227 
L 757.512 267.092281 
L 764.208 267.092302 
L 770.904 267.092307 
L 777.6 267.092308 
" style="fill:none;stroke:#d62728;stroke-linecap:square;stroke-width:1.5;"/>
   </g>
   <g id="line2d_73">
    <path clip-path="url(#p14e7dee535)" d="M 108 267.092308 
L 114.696 267.092235 
L 121.392 267.09117 
L 128.088 267.086687 
L 134.784 267.074976 
L 141.48 267.051031 
L 148.176 267.00883 
L 154.872 266.941502 
L 161.568 266.841489 
L 168.264 266.700692 
L 174.96 266.510614 
L 181.656 266.262492 
L 188.352 265.947415 
L 195.048 265.556446 
L 201.744 265.080718 
L 208.44 264.511539 
L 215.136 263.840479 
L 221.832 263.05945 
L 228.528 262.160783 
L 235.224 261.137294 
L 241.92 259.982341 
L 248.616 258.689883 
L 255.312 257.25452 
L 262.008 255.671536 
L 268.704 253.936935 
L 275.4 252.047461 
L 282.096 250.000628 
L 288.792 247.794732 
L 295.488 245.428862 
L 302.184 242.902907 
L 308.88 240.217554 
L 315.576 237.374289 
L 322.272 234.375383 
L 328.968 231.223882 
L 335.664 227.92359 
L 342.36 224.479048 
L 349.056 220.895509 
L 355.752 217.178911 
L 362.448 213.335846 
L 369.144 209.373523 
L 375.84 205.299737 
L 382.536 201.122822 
L 389.232 196.851617 
L 395.928 192.495417 
L 402.624 188.063925 
L 409.32 183.567213 
L 416.016 179.015664 
L 422.712 174.419925 
L 429.408 169.790857 
L 436.104 165.139481 
L 442.8 160.476923 
L 449.496 155.814365 
L 456.192 151.162989 
L 462.888 146.533921 
L 469.584 141.938182 
L 476.28 137.386633 
L 482.976 132.889921 
L 489.672 128.45843 
L 496.368 124.102229 
L 503.064 119.831024 
L 509.76 115.65411 
L 516.456 111.580323 
L 523.152 107.618 
L 529.848 103.774935 
L 536.544 100.058337 
L 543.24 96.474798 
L 549.936 93.030256 
L 556.632 89.729964 
L 563.328 86.578463 
L 570.024 83.579557 
L 576.72 80.736292 
L 583.416 78.050939 
L 590.112 75.524984 
L 596.808 73.159114 
L 603.504 70.953218 
L 610.2 68.906385 
L 616.896 67.016912 
L 623.592 65.28231 
L 630.288 63.699327 
L 636.984 62.263964 
L 643.68 60.971505 
L 650.376 59.816553 
L 657.072 58.793063 
L 663.768 57.894396 
L 670.464 57.113367 
L 677.16 56.442307 
L 683.856 55.873128 
L 690.552 55.3974 
L 697.248 55.006431 
L 703.944 54.691354 
L 710.64 54.443232 
L 717.336 54.253154 
L 724.032 54.112357 
L 730.728 54.012344 
L 737.424 53.945017 
L 744.12 53.902815 
L 750.816 53.87887 
L 757.512 53.867159 
L 764.208 53.862676 
L 770.904 53.861611 
L 777.6 53.861538 
" style="fill:none;stroke:#9467bd;stroke-linecap:square;stroke-width:1.5;"/>
   </g>
   <g id="line2d_74">
    <path clip-path="url(#p14e7dee535)" d="M 108 267.092308 
L 114.696 267.092339 
L 121.392 267.092793 
L 128.088 267.094702 
L 134.784 267.099674 
L 141.48 267.109811 
L 148.176 267.127626 
L 154.872 267.155961 
L 161.568 267.197923 
L 168.264 267.256804 
L 174.96 267.33603 
L 181.656 267.439092 
L 188.352 267.569496 
L 195.048 267.730709 
L 201.744 267.926114 
L 208.44 268.15897 
L 215.136 268.432364 
L 221.832 268.749186 
L 228.528 269.112089 
L 235.224 269.523466 
L 241.92 269.985423 
L 248.616 270.499756 
L 255.312 271.067935 
L 262.008 271.691088 
L 268.704 272.369987 
L 275.4 273.105041 
L 282.096 273.896286 
L 288.792 274.743385 
L 295.488 275.645621 
L 302.184 276.601904 
L 308.88 277.610768 
L 315.576 278.670381 
L 322.272 279.77855 
L 328.968 280.93273 
L 335.664 282.130037 
L 342.36 283.367261 
L 349.056 284.640879 
L 355.752 285.947074 
L 362.448 287.281748 
L 369.144 288.640548 
L 375.84 290.01888 
L 382.536 291.411934 
L 389.232 292.814707 
L 395.928 294.222022 
L 402.624 295.628559 
L 409.32 297.028873 
L 416.016 298.417426 
L 422.712 299.788609 
L 429.408 301.136768 
L 436.104 302.456233 
L 442.8 303.741346 
L 449.496 304.986483 
L 456.192 306.186087 
L 462.888 307.334688 
L 469.584 308.426937 
L 476.28 309.457625 
L 482.976 310.421715 
L 489.672 311.314362 
L 496.368 312.130939 
L 503.064 312.867064 
L 509.76 313.518617 
L 516.456 314.081764 
L 523.152 314.552979 
L 529.848 314.929062 
L 536.544 315.207158 
L 543.24 315.384771 
L 549.936 315.459781 
L 556.632 315.430458 
L 563.328 315.295471 
L 570.024 315.053901 
L 576.72 314.705246 
L 583.416 314.249426 
L 590.112 313.686791 
L 596.808 313.018117 
L 603.504 312.244606 
L 610.2 311.367886 
L 616.896 310.389998 
L 623.592 309.313393 
L 630.288 308.140916 
L 636.984 306.875792 
L 643.68 305.52161 
L 650.376 304.082298 
L 657.072 302.562103 
L 663.768 300.965559 
L 670.464 299.297458 
L 677.16 297.562816 
L 683.856 295.766832 
L 690.552 293.914847 
L 697.248 292.012296 
L 703.944 290.064661 
L 710.64 288.077414 
L 717.336 286.055958 
L 724.032 284.005565 
L 730.728 281.93131 
L 737.424 279.837994 
L 744.12 277.730073 
L 750.816 275.611573 
L 757.512 273.486004 
L 764.208 271.356271 
L 770.904 269.224574 
L 777.6 267.092308 
" style="fill:none;stroke:#8c564b;stroke-linecap:square;stroke-width:1.5;"/>
   </g>
   <g id="line2d_75">
    <path clip-path="url(#p14e7dee535)" d="M 108 267.092308 
L 114.696 267.092303 
L 121.392 267.092227 
L 128.088 267.091911 
L 134.784 267.09109 
L 141.48 267.089421 
L 148.176 267.086496 
L 154.872 267.081858 
L 161.568 267.075009 
L 168.264 267.06543 
L 174.96 267.052583 
L 181.656 267.035926 
L 188.352 267.014924 
L 195.048 266.989053 
L 201.744 266.957811 
L 208.44 266.920724 
L 215.136 266.877354 
L 221.832 266.827302 
L 228.528 266.770215 
L 235.224 266.705789 
L 241.92 266.633776 
L 248.616 266.553983 
L 255.312 266.466275 
L 262.008 266.370581 
L 268.704 266.266891 
L 275.4 266.155258 
L 282.096 266.035802 
L 288.792 265.908703 
L 295.488 265.774207 
L 302.184 265.632621 
L 308.88 265.484313 
L 315.576 265.329712 
L 322.272 265.169302 
L 328.968 265.003622 
L 335.664 264.833263 
L 342.36 264.658864 
L 349.056 264.48111 
L 355.752 264.300725 
L 362.448 264.118473 
L 369.144 263.935149 
L 375.84 263.751579 
L 382.536 263.56861 
L 389.232 263.387112 
L 395.928 263.207968 
L 402.624 263.032068 
L 409.32 262.860311 
L 416.016 262.693593 
L 422.712 262.532803 
L 429.408 262.378822 
L 436.104 262.232511 
L 442.8 262.094712 
L 449.496 261.966239 
L 456.192 261.847874 
L 462.888 261.740364 
L 469.584 261.64441 
L 476.28 261.56067 
L 482.976 261.489749 
L 489.672 261.432195 
L 496.368 261.388495 
L 503.064 261.359075 
L 509.76 261.344288 
L 516.456 261.344418 
L 523.152 261.359672 
L 529.848 261.390177 
L 536.544 261.435979 
L 543.24 261.497043 
L 549.936 261.573243 
L 556.632 261.664369 
L 563.328 261.770118 
L 570.024 261.8901 
L 576.72 262.023834 
L 583.416 262.170745 
L 590.112 262.330172 
L 596.808 262.501362 
L 603.504 262.683475 
L 610.2 262.875586 
L 616.896 263.076686 
L 623.592 263.285686 
L 630.288 263.501423 
L 636.984 263.722659 
L 643.68 263.948092 
L 650.376 264.176359 
L 657.072 264.406043 
L 663.768 264.63568 
L 670.464 264.863766 
L 677.16 265.088767 
L 683.856 265.309131 
L 690.552 265.523292 
L 697.248 265.729688 
L 703.944 265.926766 
L 710.64 266.113003 
L 717.336 266.286912 
L 724.032 266.447062 
L 730.728 266.592092 
L 737.424 266.720725 
L 744.12 266.831791 
L 750.816 266.924241 
L 757.512 266.997167 
L 764.208 267.049825 
L 770.904 267.081657 
L 777.6 267.092308 
" style="fill:none;stroke:#e377c2;stroke-linecap:square;stroke-width:1.5;"/>
   </g>
   <g id="line2d_76">
    <path clip-path="url(#p14e7dee535)" d="M 108 267.092308 
L 114.696 267.092308 
L 121.392 267.092313 
L 128.088 267.092334 
L 134.784 267.092388 
L 141.48 267.092498 
L 148.176 267.09269 
L 154.872 267.092994 
L 161.568 267.093441 
L 168.264 267.094065 
L 174.96 267.094898 
L 181.656 267.095976 
L 188.352 267.09733 
L 195.048 267.098992 
L 201.744 267.100991 
L 208.44 267.103357 
L 215.136 267.106112 
L 221.832 267.10928 
L 228.528 267.112877 
L 235.224 267.116921 
L 241.92 267.121421 
L 248.616 267.126384 
L 255.312 267.131815 
L 262.008 267.13771 
L 268.704 267.144067 
L 275.4 267.150873 
L 282.096 267.158117 
L 288.792 267.16578 
L 295.488 267.17384 
L 302.184 267.182271 
L 308.88 267.191044 
L 315.576 267.200126 
L 322.272 267.20948 
L 328.968 267.219067 
L 335.664 267.228843 
L 342.36 267.238765 
L 349.056 267.248784 
L 355.752 267.258851 
L 362.448 267.268915 
L 369.144 267.278923 
L 375.84 267.288821 
L 382.536 267.298556 
L 389.232 267.308072 
L 395.928 267.317315 
L 402.624 267.326231 
L 409.32 267.334766 
L 416.016 267.342867 
L 422.712 267.350485 
L 429.408 267.357569 
L 436.104 267.364073 
L 442.8 267.369952 
L 449.496 267.375165 
L 456.192 267.379674 
L 462.888 267.383444 
L 469.584 267.386443 
L 476.28 267.388645 
L 482.976 267.390028 
L 489.672 267.390573 
L 496.368 267.390268 
L 503.064 267.389104 
L 509.76 267.387078 
L 516.456 267.384193 
L 523.152 267.380456 
L 529.848 267.375881 
L 536.544 267.370488 
L 543.24 267.3643 
L 549.936 267.357348 
L 556.632 267.349667 
L 563.328 267.341299 
L 570.024 267.33229 
L 576.72 267.322693 
L 583.416 267.312563 
L 590.112 267.301961 
L 596.808 267.290954 
L 603.504 267.279611 
L 610.2 267.268004 
L 616.896 267.256211 
L 623.592 267.244308 
L 630.288 267.232378 
L 636.984 267.220501 
L 643.68 267.20876 
L 650.376 267.197238 
L 657.072 267.186015 
L 663.768 267.17517 
L 670.464 267.164781 
L 677.16 267.154918 
L 683.856 267.145651 
L 690.552 267.137038 
L 697.248 267.129135 
L 703.944 267.121986 
L 710.64 267.115624 
L 717.336 267.110074 
L 724.032 267.105343 
L 730.728 267.101426 
L 737.424 267.098301 
L 744.12 267.095926 
L 750.816 267.094239 
L 757.512 267.093157 
L 764.208 267.09257 
L 770.904 267.092342 
L 777.6 267.092308 
" style="fill:none;stroke:#7f7f7f;stroke-linecap:square;stroke-width:1.5;"/>
   </g>
   <g id="patch_3">
    <path d="M 108 320.4 
L 108 43.2 
" style="fill:none;stroke:#000000;stroke-linecap:square;stroke-linejoin:miter;stroke-width:0.8;"/>
   </g>
   <g id="patch_4">
    <path d="M 777.6 320.4 
L 777.6 43.2 
" style="fill:none;stroke:#000000;stroke-linecap:square;stroke-linejoin:miter;stroke-width:0.8;"/>
   </g>
   <g id="patch_5">
    <path d="M 108 320.4 
L 777.6 320.4 
" style="fill:none;stroke:#000000;stroke-linecap:square;stroke-linejoin:miter;stroke-width:0.8;"/>
   </g>
   <g id="patch_6">
    <path d="M 108 43.2 
L 777.6 43.2 
" style="fill:none;stroke:#000000;stroke-linecap:square;stroke-linejoin:miter;stroke-width:0.8;"/>
   </g>
   <g id="legend_1">
    <g id="patch_7">
     <path d="M 701.52 203.52 
L 769.2 203.52 
Q 771.6 203.52 771.6 201.12 
L 771.6 51.6 
Q 771.6 49.2 769.2 49.2 
L 701.52 49.2 
Q 699.12 49.2 699.12 51.6 
L 699.12 201.12 
Q 699.12 203.52 701.52 203.52 
z
" style="fill:#ffffff;opacity:0.8;stroke:#cccccc;stroke-linejoin:miter;"/>
    </g>
    <g id="line2d_77">
     <path d="M 703.92 58.92 
L 727.92 58.92 
" style="fill:none;stroke:#1f77b4;stroke-linecap:square;stroke-width:1.5;"/>
    </g>
    <g id="line2d_78"/>
    <g id="text_37">
     <!-- $h_{y0}$ -->
     <g transform="translate(737.52 63.12)scale(0.12 -0.12)">
      <defs>
       <path d="M 55.71875 33.015625 
L 49.3125 0 
L 40.28125 0 
L 46.6875 32.671875 
Q 47.125 34.96875 47.359375 36.71875 
Q 47.609375 38.484375 47.609375 39.5 
Q 47.609375 43.609375 45.015625 45.890625 
Q 42.4375 48.1875 37.796875 48.1875 
Q 30.5625 48.1875 25.265625 43.296875 
Q 19.96875 38.421875 18.40625 30.328125 
L 12.5 0 
L 3.515625 0 
L 18.3125 75.984375 
L 27.296875 75.984375 
L 21.484375 46.09375 
Q 24.90625 50.6875 30.21875 53.34375 
Q 35.546875 56 41.40625 56 
Q 48.640625 56 52.609375 52.09375 
Q 56.59375 48.1875 56.59375 41.109375 
Q 56.59375 39.359375 56.375 37.359375 
Q 56.15625 35.359375 55.71875 33.015625 
z
" id="DejaVuSans-Oblique-104"/>
       <path d="M 24.8125 -5.078125 
Q 18.5625 -15.578125 14.625 -18.1875 
Q 10.6875 -20.796875 4.59375 -20.796875 
L -2.484375 -20.796875 
L -0.984375 -13.28125 
L 4.203125 -13.28125 
Q 7.953125 -13.28125 10.59375 -11.234375 
Q 13.234375 -9.1875 16.5 -3.21875 
L 19.28125 2 
L 7.171875 54.6875 
L 16.703125 54.6875 
L 25.78125 12.796875 
L 50.875 54.6875 
L 60.296875 54.6875 
z
" id="DejaVuSans-Oblique-121"/>
      </defs>
      <use transform="translate(0 0.015625)" xlink:href="#DejaVuSans-Oblique-104"/>
      <use transform="translate(63.378906 -16.390625)scale(0.7)" xlink:href="#DejaVuSans-Oblique-121"/>
      <use transform="translate(104.804688 -16.390625)scale(0.7)" xlink:href="#DejaVuSans-48"/>
     </g>
    </g>
    <g id="line2d_79">
     <path d="M 703.92 77.76 
L 727.92 77.76 
" style="fill:none;stroke:#ff7f0e;stroke-linecap:square;stroke-width:1.5;"/>
    </g>
    <g id="line2d_80"/>
    <g id="text_38">
     <!-- $h_{g0}$ -->
     <g transform="translate(737.52 81.96)scale(0.12 -0.12)">
      <defs>
       <path d="M 59.625 54.6875 
L 50.296875 6.78125 
Q 47.609375 -7.125 40.015625 -13.953125 
Q 32.421875 -20.796875 19.578125 -20.796875 
Q 14.84375 -20.796875 10.78125 -20.09375 
Q 6.734375 -19.390625 3.21875 -17.921875 
L 4.890625 -9.1875 
Q 8.203125 -11.328125 11.90625 -12.34375 
Q 15.625 -13.375 19.828125 -13.375 
Q 28.375 -13.375 33.859375 -8.703125 
Q 39.359375 -4.046875 41.109375 4.6875 
L 41.890625 8.796875 
Q 38.140625 4.5 33.15625 2.25 
Q 28.171875 0 22.40625 0 
Q 14.109375 0 9.34375 5.484375 
Q 4.59375 10.984375 4.59375 20.609375 
Q 4.59375 28.171875 7.46875 35.421875 
Q 10.359375 42.671875 15.578125 48.296875 
Q 19.046875 52 23.65625 54 
Q 28.265625 56 33.296875 56 
Q 38.8125 56 42.90625 53.4375 
Q 47.015625 50.875 49.03125 46.1875 
L 50.59375 54.6875 
z
M 46.09375 34.625 
Q 46.09375 41.265625 42.96875 44.875 
Q 39.84375 48.484375 34.078125 48.484375 
Q 30.515625 48.484375 27.296875 47.0625 
Q 24.078125 45.65625 21.78125 43.109375 
Q 18.0625 38.921875 15.984375 33.234375 
Q 13.921875 27.546875 13.921875 21.484375 
Q 13.921875 14.75 17.0625 11.125 
Q 20.21875 7.515625 26.125 7.515625 
Q 34.671875 7.515625 40.375 15.25 
Q 46.09375 23 46.09375 34.625 
z
" id="DejaVuSans-Oblique-103"/>
      </defs>
      <use transform="translate(0 0.015625)" xlink:href="#DejaVuSans-Oblique-104"/>
      <use transform="translate(63.378906 -16.390625)scale(0.7)" xlink:href="#DejaVuSans-Oblique-103"/>
      <use transform="translate(107.8125 -16.390625)scale(0.7)" xlink:href="#DejaVuSans-48"/>
     </g>
    </g>
    <g id="line2d_81">
     <path d="M 703.92 96.6 
L 727.92 96.6 
" style="fill:none;stroke:#2ca02c;stroke-linecap:square;stroke-width:1.5;"/>
    </g>
    <g id="line2d_82"/>
    <g id="text_39">
     <!-- $h_{gg0}$ -->
     <g transform="translate(737.52 100.8)scale(0.12 -0.12)">
      <use transform="translate(0 0.015625)" xlink:href="#DejaVuSans-Oblique-104"/>
      <use transform="translate(63.378906 -16.390625)scale(0.7)" xlink:href="#DejaVuSans-Oblique-103"/>
      <use transform="translate(107.8125 -16.390625)scale(0.7)" xlink:href="#DejaVuSans-Oblique-103"/>
      <use transform="translate(152.246094 -16.390625)scale(0.7)" xlink:href="#DejaVuSans-48"/>
     </g>
    </g>
    <g id="line2d_83">
     <path d="M 703.92 115.44 
L 727.92 115.44 
" style="fill:none;stroke:#d62728;stroke-linecap:square;stroke-width:1.5;"/>
    </g>
    <g id="line2d_84"/>
    <g id="text_40">
     <!-- $h_{ggg0}$ -->
     <g transform="translate(737.52 119.64)scale(0.12 -0.12)">
      <use transform="translate(0 0.015625)" xlink:href="#DejaVuSans-Oblique-104"/>
      <use transform="translate(63.378906 -16.390625)scale(0.7)" xlink:href="#DejaVuSans-Oblique-103"/>
      <use transform="translate(107.8125 -16.390625)scale(0.7)" xlink:href="#DejaVuSans-Oblique-103"/>
      <use transform="translate(152.246094 -16.390625)scale(0.7)" xlink:href="#DejaVuSans-Oblique-103"/>
      <use transform="translate(196.679688 -16.390625)scale(0.7)" xlink:href="#DejaVuSans-48"/>
     </g>
    </g>
    <g id="line2d_85">
     <path d="M 703.92 134.28 
L 727.92 134.28 
" style="fill:none;stroke:#9467bd;stroke-linecap:square;stroke-width:1.5;"/>
    </g>
    <g id="line2d_86"/>
    <g id="text_41">
     <!-- $h_{y1}$ -->
     <g transform="translate(737.52 138.48)scale(0.12 -0.12)">
      <use transform="translate(0 0.015625)" xlink:href="#DejaVuSans-Oblique-104"/>
      <use transform="translate(63.378906 -16.390625)scale(0.7)" xlink:href="#DejaVuSans-Oblique-121"/>
      <use transform="translate(104.804688 -16.390625)scale(0.7)" xlink:href="#DejaVuSans-49"/>
     </g>
    </g>
    <g id="line2d_87">
     <path d="M 703.92 153.12 
L 727.92 153.12 
" style="fill:none;stroke:#8c564b;stroke-linecap:square;stroke-width:1.5;"/>
    </g>
    <g id="line2d_88"/>
    <g id="text_42">
     <!-- $h_{g1}$ -->
     <g transform="translate(737.52 157.32)scale(0.12 -0.12)">
      <use transform="translate(0 0.015625)" xlink:href="#DejaVuSans-Oblique-104"/>
      <use transform="translate(63.378906 -16.390625)scale(0.7)" xlink:href="#DejaVuSans-Oblique-103"/>
      <use transform="translate(107.8125 -16.390625)scale(0.7)" xlink:href="#DejaVuSans-49"/>
     </g>
    </g>
    <g id="line2d_89">
     <path d="M 703.92 171.96 
L 727.92 171.96 
" style="fill:none;stroke:#e377c2;stroke-linecap:square;stroke-width:1.5;"/>
    </g>
    <g id="line2d_90"/>
    <g id="text_43">
     <!-- $h_{gg1}$ -->
     <g transform="translate(737.52 176.16)scale(0.12 -0.12)">
      <use transform="translate(0 0.015625)" xlink:href="#DejaVuSans-Oblique-104"/>
      <use transform="translate(63.378906 -16.390625)scale(0.7)" xlink:href="#DejaVuSans-Oblique-103"/>
      <use transform="translate(107.8125 -16.390625)scale(0.7)" xlink:href="#DejaVuSans-Oblique-103"/>
      <use transform="translate(152.246094 -16.390625)scale(0.7)" xlink:href="#DejaVuSans-49"/>
     </g>
    </g>
    <g id="line2d_91">
     <path d="M 703.92 190.8 
L 727.92 190.8 
" style="fill:none;stroke:#7f7f7f;stroke-linecap:square;stroke-width:1.5;"/>
    </g>
    <g id="line2d_92"/>
    <g id="text_44">
     <!-- $h_{ggg1}$ -->
     <g transform="translate(737.52 195)scale(0.12 -0.12)">
      <use transform="translate(0 0.015625)" xlink:href="#DejaVuSans-Oblique-104"/>
      <use transform="translate(63.378906 -16.390625)scale(0.7)" xlink:href="#DejaVuSans-Oblique-103"/>
      <use transform="translate(107.8125 -16.390625)scale(0.7)" xlink:href="#DejaVuSans-Oblique-103"/>
      <use transform="translate(152.246094 -16.390625)scale(0.7)" xlink:href="#DejaVuSans-Oblique-103"/>
      <use transform="translate(196.679688 -16.390625)scale(0.7)" xlink:href="#DejaVuSans-49"/>
     </g>
    </g>
   </g>
  </g>
 </g>
 <defs>
  <clipPath id="p14e7dee535">
   <rect height="277.2" width="669.6" x="108" y="43.2"/>
  </clipPath>
 </defs>
</svg>
